<?xml version="1.0" encoding="UTF-8"?> <svg xmlns="http://www.w3.org/2000/svg" width="780" height="440" viewBox="0 0 780 440"><title>search-twitter-history</title><path fill="#1da1f2" d="M0 0h780v440H0z"></path><circle cx="302.6" cy="177.5" r="63.5" fill="#0c5689"></circle><circle cx="478.3" cy="177.5" r="63.5" fill="#0c5689"></circle><path d="M474.2 121.9a38.1 38.1 0 0 1 34.8 0l22.6 11.9 40 21.2h-160l40-21.2zM272.6 121.4a38.8 38.8 0 0 1 34.8 0l22.7 12 40 21.2H210l40-21.2z" fill="#0c5689"></path><path d="M368.2 121.7a41.7 41.7 0 0 1 43.6 0l19.8 12.2 22.7 35.8c6.1 3.7 1.1 3.8-6.1 3.8H331.8c-7.2 0-12.2-.1-6.1-3.8l22.7-35.8z" fill="#0c5689"></path><path d="M368.8 138.2a42.1 42.1 0 0 1 42.8 0l27.8 17.1 49.1 30.2H291.9l49.1-30.2z" fill="#0a3960"></path><circle cx="390.2" cy="200.7" r="62.1" fill="#0a3960"></circle><circle cx="514.8" cy="235.8" r="90.2" fill="#88c0ee"></circle><circle cx="265.2" cy="235.8" r="90.2" fill="#88c0ee"></circle><circle cx="390.2" cy="194.2" r="23" fill="#0c5689"></circle><circle cx="265.2" cy="235.8" r="90.2" fill="none" stroke="#0a344f" stroke-miterlimit="10" stroke-width="14.3"></circle><circle cx="514.8" cy="235.8" r="90.2" fill="none" stroke="#0a344f" stroke-miterlimit="10" stroke-width="14.3"></circle><path d="M300.2 214.1a32.9 32.9 0 0 1-8.3 2.3 14 14 0 0 0 6.3-8 25.7 25.7 0 0 1-9.1 3.5 14.4 14.4 0 0 0-24.8 9.8 12.4 12.4 0 0 0 .4 3.3 40.8 40.8 0 0 1-29.6-15 14.1 14.1 0 0 0 4.8 19.1c-2.3 0-6.1-.7-6.1-1.7a14 14 0 0 0 11.1 14.1 16.7 16.7 0 0 1-3.9.5 13.3 13.3 0 0 1-2.8-.3 14.3 14.3 0 0 0 13.3 10 28.4 28.4 0 0 1-17.8 6.1 18.8 18.8 0 0 1-3.4-.2 40 40 0 0 0 21.9 6.5 40.5 40.5 0 0 0 40.8-40.8v-1.9a29.8 29.8 0 0 0 7.2-7.3zM549.7 214.1a31.1 31.1 0 0 1-8.2 2.3 14.4 14.4 0 0 0 6.3-8 26.5 26.5 0 0 1-9.1 3.5 14.4 14.4 0 0 0-24.8 9.8 12.4 12.4 0 0 0 .4 3.3 40.6 40.6 0 0 1-29.6-15 14.1 14.1 0 0 0 4.8 19.1c-2.3 0-6.1-.7-6.1-1.7a14 14 0 0 0 11.1 14.1 16.7 16.7 0 0 1-3.9.5 12 12 0 0 1-2.8-.3 14.2 14.2 0 0 0 13.3 10 28.4 28.4 0 0 1-17.8 6.1 20.6 20.6 0 0 1-3.5-.2 40.6 40.6 0 0 0 22 6.5 40.5 40.5 0 0 0 40.8-40.8v-1.9a27.8 27.8 0 0 0 7.1-7.3z" fill="#fff" fill-rule="evenodd"></path></svg> 